<svg width="24" height="24" viewBox="0 0 24 24" fill="none" xmlns="http://www.w3.org/2000/svg">
<path fill-rule="evenodd" clip-rule="evenodd" d="M12.751 1.50006V4.22369L14.96 2.75104L15.792 3.99911L12.751 6.02647V10.6946L16.5444 8.48183L16.8784 4.80768L18.3722 4.94348L18.1349 7.55402L20.623 6.1026L21.3789 7.39827L18.7683 8.92107L21.3357 10.2048L20.6649 11.5464L17.2203 9.8241L13.4901 12.0001L17.2203 14.176L20.6649 12.4537L21.3357 13.7954L18.7683 15.079L21.3789 16.6019L20.623 17.8975L18.1349 16.4461L18.3722 19.0566L16.8784 19.1924L16.5444 15.5183L12.751 13.3055V17.9737L15.792 20.001L14.96 21.2491L12.751 19.7764V22.5001H11.251V19.7764L9.04201 21.2491L8.20996 20.001L11.251 17.9737V13.3062L7.45752 15.519L7.12358 19.1924L5.62974 19.0566L5.86699 16.4469L3.37885 17.8983L2.62305 16.6026L5.23428 15.0794L2.66625 13.7954L3.33707 12.4537L6.78233 14.1764L10.5131 12.0001L6.78233 9.82377L3.33707 11.5464L2.66625 10.2048L5.23428 8.92074L2.62305 7.39752L3.37885 6.10185L5.86699 7.55327L5.62974 4.94348L7.12358 4.80768L7.45752 8.48108L11.251 10.6939V6.02646L8.20996 3.99911L9.04201 2.75104L11.251 4.22368V1.50006H12.751Z" fill="black"/>
</svg>
