<svg width="24" height="24" viewBox="0 0 24 24" fill="none" xmlns="http://www.w3.org/2000/svg">
<path fill-rule="evenodd" clip-rule="evenodd" d="M18.1846 2.99994L19.2561 6.74995H15.2447L16.3161 2.99994H18.1846ZM19.7532 8.24995C20.5006 8.24995 21.0403 7.53456 20.8349 6.81589L19.5492 2.31588C19.4112 1.83291 18.9698 1.49994 18.4675 1.49994H16.0332C15.5309 1.49994 15.0895 1.83291 14.9515 2.31588L13.6658 6.81589C13.4605 7.53456 14.0001 8.24995 14.7475 8.24995H19.7532ZM16.5 8.25006V12.0001H12V9.37506C12 8.75374 11.4963 8.25006 10.875 8.25006H5.625C5.00368 8.25006 4.5 8.75374 4.5 9.37506V12H3L1.49805 12.0001V13.5001H3V22.5H4.5V17.25H19.5V22.5H21V13.5001H22.4981V12.0001H21L19.5 12L18 12.0001V8.25006H16.5ZM19.5 15.75V13.5001H4.5V15.75H19.5ZM6 9.75006V12.0001H10.5V9.75006H6Z" fill="black"/>
</svg>
