<svg width="24" height="24" viewBox="0 0 24 24" fill="none" xmlns="http://www.w3.org/2000/svg">
<path fill-rule="evenodd" clip-rule="evenodd" d="M7.5 1.875C6.67157 1.875 6 2.54657 6 3.375V8.625V10.125V13.125H5.25H3.75H2.25V14.625H3.75V20.625H2.25V22.125H3.75H5.25H6.75H8.25H9.75H11.25H12.75H14.25H15.75H17.25H18.75H20.25H21.75V20.625H20.25V14.625H21.75V13.125H20.25H18.75H18V10.125V8.625V3.375C18 2.54657 17.3284 1.875 16.5 1.875H7.5ZM16.5 8.625V3.375H12.75V8.625H16.5ZM11.25 8.625V3.375H7.5V8.625H11.25ZM7.5 10.125H11.25V13.125H9.75H8.25H7.5V10.125ZM12.75 10.125H16.5V13.125H15.75H14.25H12.75V10.125ZM6.75 14.625V20.625H5.25V14.625H6.75ZM9.75 20.625H8.25V14.625H9.75V20.625ZM12.75 20.625H11.25V14.625H12.75V20.625ZM15.75 20.625H14.25V14.625H15.75V20.625ZM18.75 14.625V20.625H17.25V14.625H18.75Z" fill="black"/>
</svg>
