<svg width="24" height="24" viewBox="0 0 24 24" fill="none" xmlns="http://www.w3.org/2000/svg">
<path fill-rule="evenodd" clip-rule="evenodd" d="M2.25 3.375C2.25 2.75368 2.75368 2.25 3.375 2.25H17.5788C18.6113 2.25 19.5112 2.95267 19.7617 3.95429L20.1111 5.35215C20.2886 6.06219 19.7516 6.75 19.0197 6.75H12.75V8.25H11.25V6.75H3.75V21H6.43934L6.24863 20.8093C5.10728 19.6679 4.82433 17.9243 5.54618 16.4806L6.90836 13.7562C7.22508 13.1228 7.22508 12.3772 6.90836 11.7438L6.35053 10.6281C5.97653 9.8801 6.52046 9 7.35676 9H16.6432C17.4795 9 18.0235 9.8801 17.6495 10.6281L17.0916 11.7438C17.0498 11.8274 17.0135 11.913 16.9828 12H18C20.0711 12 21.75 13.6789 21.75 15.75V18.375H20.25V15.75C20.25 14.5074 19.2426 13.5 18 13.5H16.9828C17.0135 13.587 17.0498 13.6726 17.0916 13.7562L18.4538 16.4806C19.1757 17.9243 18.8927 19.6679 17.7514 20.8093L17.5607 21H20.25V22.5H15.1287H8.87132H3H2.25V21.75V6V3.375ZM15.4298 12C15.4948 11.6817 15.6015 11.3699 15.75 11.0729L16.0365 10.5H7.96353L8.25 11.0729C8.3985 11.3699 8.50522 11.6817 8.57017 12H15.4298ZM8.57017 13.5H15.4298C15.4948 13.8183 15.6015 14.1301 15.75 14.4271L17.1122 17.1514C17.1516 17.2303 17.186 17.3106 17.2155 17.392L16.5399 17.5272C15.1746 17.8002 13.7567 17.5197 12.5981 16.7474L11.8224 16.2302C10.6157 15.4257 9.13115 15.157 7.72109 15.4849L8.25 14.4271C8.3985 14.1301 8.50522 13.8183 8.57017 13.5ZM15.1287 21C15.3276 21 15.5184 20.921 15.659 20.7803L16.6907 19.7486C16.93 19.5094 17.1063 19.226 17.2161 18.9216L16.8341 18.998C15.0787 19.3491 13.2556 18.9885 11.7661 17.9955L10.9903 17.4783C10.1112 16.8922 9.02567 16.7042 8.00067 16.9604L6.9319 17.2276L6.90451 17.118L6.88782 17.1514C6.45471 18.0176 6.62448 19.0638 7.30929 19.7486L8.34099 20.7803C8.48164 20.921 8.67241 21 8.87132 21H15.1287ZM3.75 5.25H18.5394L18.3064 4.3181C18.223 3.98422 17.923 3.75 17.5788 3.75H3.75V5.25Z" fill="black"/>
</svg>
