<svg width="24" height="24" viewBox="0 0 24 24" fill="none" xmlns="http://www.w3.org/2000/svg">
<path fill-rule="evenodd" clip-rule="evenodd" d="M4.5 4.5C4.5 4.08579 4.83579 3.75 5.25 3.75H18.75C19.1642 3.75 19.5 4.08579 19.5 4.5V9.75H18V6.75C18 5.92157 17.3284 5.25 16.5 5.25H7.5C6.67157 5.25 6 5.92157 6 6.75V9.75H4.5V4.5ZM6 11.25H18H19.9594L20.9594 14.25H3.04057L4.04057 11.25H6ZM16.5 6.75V9.75H12.75V6.75H16.5ZM7.5 6.75H11.25V9.75H7.5V6.75ZM3 18.75V15.75H21V18.75H3ZM3 20.25V21.75H1.5V14.1283L3 9.62829V4.5C3 3.25736 4.00736 2.25 5.25 2.25H18.75C19.9926 2.25 21 3.25736 21 4.5V9.62829L22.5 14.1283V21.75H21V20.25H3Z" fill="black"/>
</svg>
