<svg width="24" height="24" viewBox="0 0 24 24" fill="none" xmlns="http://www.w3.org/2000/svg">
<path fill-rule="evenodd" clip-rule="evenodd" d="M9 8.25037C9 7.00773 7.99264 6.00037 6.75 6.00037C5.77033 6.00037 4.9369 6.62647 4.62802 7.50037H3.75C2.50736 7.50037 1.5 8.50773 1.5 9.75037V14.2504C1.5 15.493 2.50736 16.5004 3.75001 16.5004H4.62802C4.9369 17.3743 5.77033 18.0004 6.75 18.0004C7.99264 18.0004 9 16.993 9 15.7504V12.7504H15V15.7504C15 16.993 16.0074 18.0004 17.25 18.0004C18.2297 18.0004 19.0631 17.3743 19.372 16.5004H20.25C21.4926 16.5004 22.5 15.493 22.5 14.2504V9.75037C22.5 8.50773 21.4926 7.50037 20.25 7.50037H19.372C19.0631 6.62647 18.2297 6.00037 17.25 6.00037C16.0074 6.00037 15 7.00773 15 8.25037V11.2504H9V8.25037ZM4.49999 15.0004V9.00037H3.75C3.33579 9.00037 3 9.33616 3 9.75037V14.2504C3 14.6646 3.33579 15.0004 3.75 15.0004H4.49999ZM6.75 7.50037C7.16421 7.50037 7.5 7.83616 7.5 8.25037V15.7504C7.5 16.1646 7.16421 16.5004 6.75 16.5004C6.33578 16.5004 6 16.1646 6 15.7504V8.25037C6 7.83616 6.33578 7.50037 6.75 7.50037ZM20.25 15.0004H19.5V9.00037H20.25C20.6642 9.00037 21 9.33616 21 9.75037V14.2504C21 14.6646 20.6642 15.0004 20.25 15.0004ZM18 8.25037C18 7.83616 17.6642 7.50037 17.25 7.50037C16.8358 7.50037 16.5 7.83616 16.5 8.25037V15.7504C16.5 16.1646 16.8358 16.5004 17.25 16.5004C17.6642 16.5004 18 16.1646 18 15.7504V8.25037Z" fill="black"/>
</svg>
