<svg width="20" height="20" viewBox="0 0 20 20" fill="none" xmlns="http://www.w3.org/2000/svg">
<path fill-rule="evenodd" clip-rule="evenodd" d="M5.625 3.125C5.45924 3.125 5.30027 3.19085 5.18306 3.30806C5.06585 3.42527 5 3.58424 5 3.75V8.125H6.875V5.625C6.875 4.935 7.435 4.375 8.125 4.375H11.875C12.565 4.375 13.125 4.935 13.125 5.625V8.125H15V3.75C15 3.58424 14.9342 3.42527 14.8169 3.30806C14.6997 3.19085 14.5408 3.125 14.375 3.125H5.625ZM13.125 9.375H4.617L3.784 11.875H16.216L15.383 9.375H13.125ZM11.875 8.125V5.625H8.125V8.125H11.875ZM3.75 13.125V15.625H16.25V13.125H3.75ZM3.75 18.125V16.875H16.25V18.125H17.5V11.774L16.25 8.024V3.75C16.25 2.714 15.41 1.875 14.375 1.875H5.625C4.589 1.875 3.75 2.715 3.75 3.75V8.024L2.5 11.774V18.125H3.75Z" fill="black"/>
</svg>
