<svg width="24" height="24" viewBox="0 0 24 24" fill="none" xmlns="http://www.w3.org/2000/svg">
<path fill-rule="evenodd" clip-rule="evenodd" d="M7.875 1.5C4.35593 1.5 1.5 4.35404 1.5 7.875C1.5 10.9302 3.65034 13.4833 6.51839 14.1052L7.74888 18.412C7.93287 19.0559 8.52144 19.4999 9.19117 19.4999H9.75C9.75 20.3283 9.07843 21 8.25 21H3.75V22.5H8.25C9.90685 22.5 11.25 21.1569 11.25 19.5L11.7742 19.4999C12.7598 19.4999 13.4775 18.5657 13.2236 17.6134L12.1625 13.6342C13.0411 13.4539 13.9674 13.247 14.884 13.0323C17.6157 12.3924 20.2869 11.6771 21.4031 11.373C22.0624 11.1934 22.5 10.5969 22.5 9.93036V5.46416C22.5 4.78011 22.0397 4.17189 21.3568 4.0092C20.2238 3.73928 17.557 3.11498 14.8356 2.55774C12.1489 2.00759 9.30514 1.5 7.875 1.5ZM10.6859 13.9186C9.69643 14.0945 8.7967 14.2196 8.11839 14.2452L9.19117 17.9999H11.7742L10.6859 13.9186ZM3 7.875C3 5.18275 5.18407 3 7.875 3C9.12131 3 11.8016 3.46761 14.5347 4.02725C17.2259 4.57831 19.8679 5.19655 21 5.46619V9.92819C19.8854 10.2318 17.2408 10.9396 14.5419 11.5718C13.1885 11.8889 11.8279 12.1853 10.643 12.4021C9.44302 12.6216 8.47211 12.75 7.875 12.75C5.18407 12.75 3 10.5672 3 7.875ZM9.75 7.875C9.75 8.91053 8.91053 9.75 7.875 9.75C6.83947 9.75 6 8.91053 6 7.875C6 6.83947 6.83947 6 7.875 6C8.91053 6 9.75 6.83947 9.75 7.875ZM11.25 7.875C11.25 9.73896 9.73896 11.25 7.875 11.25C6.01104 11.25 4.5 9.73896 4.5 7.875C4.5 6.01104 6.01104 4.5 7.875 4.5C9.73896 4.5 11.25 6.01104 11.25 7.875Z" fill="black"/>
</svg>
