<svg width="24" height="24" viewBox="0 0 24 24" fill="none" xmlns="http://www.w3.org/2000/svg">
<path fill-rule="evenodd" clip-rule="evenodd" d="M12 3.75012H3V5.25013H10.875V6.75013H6.75001C4.67894 6.75013 3 8.42906 3 10.5001V15.0001V15.7501H3.75H21.75V14.2501H4.5V12.75H19.5L21 12.7501C21 7.77957 16.9706 3.75012 12 3.75012ZM19.35 11.25C18.6791 7.94534 15.8354 5.42973 12.375 5.25934V7.50013V8.25013H11.625H6.75001C5.50736 8.25013 4.5 9.25749 4.5 10.5001V11.25H19.35ZM10.5008 17.25C10.0866 17.25 9.75076 17.5858 9.75076 18C9.75076 18.4142 10.0866 18.75 10.5008 18.75C10.915 18.75 11.2508 18.4142 11.2508 18C11.2508 17.5858 10.915 17.25 10.5008 17.25ZM11.9996 19.4999C11.5854 19.4999 11.2496 19.8357 11.2496 20.2499C11.2496 20.6641 11.5854 20.9999 11.9996 20.9999C12.4138 20.9999 12.7496 20.6641 12.7496 20.2499C12.7496 19.8357 12.4138 19.4999 11.9996 19.4999ZM12.7503 18C12.7503 17.5858 13.0861 17.25 13.5003 17.25C13.9146 17.25 14.2503 17.5858 14.2503 18C14.2503 18.4142 13.9146 18.75 13.5003 18.75C13.0861 18.75 12.7503 18.4142 12.7503 18ZM15.0011 19.4999C14.5869 19.4999 14.2511 19.8357 14.2511 20.2499C14.2511 20.6641 14.5869 20.9999 15.0011 20.9999C15.4153 20.9999 15.7511 20.6641 15.7511 20.2499C15.7511 19.8357 15.4153 19.4999 15.0011 19.4999ZM8.25 20.2499C8.25 19.8357 8.58579 19.4999 9 19.4999C9.41422 19.4999 9.75001 19.8357 9.75001 20.2499C9.75001 20.6641 9.41422 20.9999 9 20.9999C8.58579 20.9999 8.25 20.6641 8.25 20.2499Z" fill="black"/>
</svg>
