<svg width="24" height="24" viewBox="0 0 24 24" fill="none" xmlns="http://www.w3.org/2000/svg">
<path d="M12 13.5C11.0054 13.5 10.0516 13.1049 9.34835 12.4017C8.64509 11.6984 8.25 10.7446 8.25 9.75C8.25 8.75544 8.64509 7.80161 9.34835 7.09835C10.0516 6.39509 11.0054 6 12 6C12.9946 6 13.9484 6.39509 14.6517 7.09835C15.3549 7.80161 15.75 8.75544 15.75 9.75C15.75 10.7446 15.3549 11.6984 14.6517 12.4017C13.9484 13.1049 12.9946 13.5 12 13.5ZM12 7.5C11.4033 7.5 10.831 7.73705 10.409 8.15901C9.98705 8.58097 9.75 9.15326 9.75 9.75C9.75 10.3467 9.98705 10.919 10.409 11.341C10.831 11.7629 11.4033 12 12 12C12.5967 12 13.169 11.7629 13.591 11.341C14.0129 10.919 14.25 10.3467 14.25 9.75C14.25 9.15326 14.0129 8.58097 13.591 8.15901C13.169 7.73705 12.5967 7.5 12 7.5Z" fill="black"/>
<path d="M12 22.5L5.67301 15.038C5.58545 14.926 5.49878 14.8134 5.41301 14.7C4.3319 13.2765 3.74769 11.5375 3.75001 9.75C3.75001 7.56196 4.6192 5.46354 6.16638 3.91637C7.71355 2.36919 9.81197 1.5 12 1.5C14.188 1.5 16.2865 2.36919 17.8336 3.91637C19.3808 5.46354 20.25 7.56196 20.25 9.75C20.2528 11.5367 19.6692 13.2749 18.589 14.698L18.588 14.7C18.588 14.7 18.363 14.996 18.329 15.035L12 22.5ZM6.61001 13.796C6.61001 13.796 6.78401 14.027 6.82401 14.077L12 20.181L17.183 14.068L17.392 13.794C18.2748 12.6308 18.7518 11.2102 18.75 9.75C18.75 7.95979 18.0388 6.2429 16.773 4.97703C15.5071 3.71116 13.7902 3 12 3C10.2098 3 8.49291 3.71116 7.22704 4.97703C5.96117 6.2429 5.25001 7.95979 5.25001 9.75C5.24865 11.2111 5.72639 12.6324 6.61001 13.796Z" fill="black"/>
</svg>
