<svg width="24" height="24" viewBox="0 0 24 24" fill="none" xmlns="http://www.w3.org/2000/svg">
<path d="M20.9981 7.50001H17.9981V1.5H16.4981V7.50001H9.74806V6.00001H8.24806V7.50001H5.99806V6.00001H4.49805V7.50001H2.99805C2.60022 7.50001 2.21869 7.65805 1.93739 7.93935C1.65608 8.22066 1.49805 8.60219 1.49805 9.00002V21C1.49805 21.3979 1.65608 21.7794 1.93739 22.0607C2.21869 22.342 2.60022 22.5 2.99805 22.5H20.9981C21.3959 22.5 21.7774 22.342 22.0588 22.0607C22.3401 21.7794 22.4981 21.3979 22.4981 21V9.00002C22.4981 8.60219 22.3401 8.22066 22.0588 7.93935C21.7774 7.65805 21.3959 7.50001 20.9981 7.50001ZM2.99805 21V9.00002H20.9981V21H2.99805Z" fill="black"/>
<path d="M7.49806 19.5C6.90471 19.5 6.32469 19.3241 5.83134 18.9944C5.338 18.6648 4.95348 18.1963 4.72641 17.6481C4.49935 17.0999 4.43994 16.4967 4.5557 15.9148C4.67145 15.3328 4.95718 14.7983 5.37673 14.3787C5.79629 13.9591 6.33084 13.6734 6.91279 13.5577C7.49473 13.4419 8.09793 13.5013 8.64611 13.7284C9.19429 13.9555 9.66283 14.34 9.99247 14.8333C10.3221 15.3267 10.4981 15.9067 10.4981 16.5C10.4981 17.2957 10.182 18.0587 9.61938 18.6214C9.05677 19.184 8.29371 19.5 7.49806 19.5ZM7.49806 15C7.20139 15 6.91138 15.088 6.6647 15.2528C6.41803 15.4176 6.22577 15.6519 6.11224 15.926C5.99871 16.2001 5.969 16.5017 6.02688 16.7927C6.08476 17.0836 6.22762 17.3509 6.4374 17.5607C6.64718 17.7705 6.91445 17.9133 7.20542 17.9712C7.4964 18.0291 7.798 17.9994 8.07209 17.8859C8.34618 17.7723 8.58044 17.5801 8.74527 17.3334C8.91009 17.0867 8.99806 16.7967 8.99806 16.5C8.99806 16.1022 8.84003 15.7207 8.55872 15.4394C8.27742 15.1581 7.89588 15 7.49806 15Z" fill="black"/>
<path d="M9.74806 10.5H5.24805V12H9.74806V10.5Z" fill="black"/>
<path d="M19.4981 12H12.7481V13.5H19.4981V12Z" fill="black"/>
<path d="M19.4981 15H12.7481V16.5H19.4981V15Z" fill="black"/>
<path d="M19.4981 18H12.7481V19.5H19.4981V18Z" fill="black"/>
</svg>
