<svg width="24" height="24" viewBox="0 0 24 24" fill="none" xmlns="http://www.w3.org/2000/svg">
<path d="M21 18.0037V16.5037C20.9966 14.2482 20.1471 12.0761 18.6196 10.4167C17.092 8.7573 14.9975 7.73136 12.75 7.54169V6.00366H15V4.50366H9V6.00366H11.25V7.54169C9.00253 7.73136 6.908 8.7573 5.38043 10.4167C3.85285 12.0761 3.00341 14.2482 3 16.5037V18.0037H1.5V19.5037H22.5V18.0037H21ZM12 9.00366C13.7281 9.00594 15.4027 9.60395 16.7413 10.6969C18.08 11.7898 19.0009 13.3109 19.3488 15.0037H4.65112C4.99904 13.3109 5.91994 11.7898 7.25861 10.6968C8.59727 9.60389 10.2718 9.00589 12 9.00366ZM4.5 16.5037H19.5V18.0037H4.5V16.5037Z" fill="black"/>
</svg>
