<svg width="24" height="24" viewBox="0 0 24 24" fill="none" xmlns="http://www.w3.org/2000/svg">
<path fill-rule="evenodd" clip-rule="evenodd" d="M3 6.375C3 4.51104 4.51104 3 6.375 3H17.625C19.489 3 21 4.51104 21 6.375V17.625C21 19.489 19.489 21 17.625 21H6.375C4.51104 21 3 19.489 3 17.625V6.375ZM6.375 4.5C5.33947 4.5 4.5 5.33947 4.5 6.375V7.875H6V7.125C6 6.50368 6.50368 6 7.125 6H16.875C17.4963 6 18 6.50368 18 7.125V16.875C18 17.4963 17.4963 18 16.875 18H7.125C6.50368 18 6 17.4963 6 16.875V16.125H4.5V17.625C4.5 18.6605 5.33947 19.5 6.375 19.5H17.625C18.6605 19.5 19.5 18.6605 19.5 17.625V6.375C19.5 5.33947 18.6605 4.5 17.625 4.5H6.375ZM6 9.375H4.5V14.625H6V9.375ZM7.5 7.5V16.5H16.5V7.5H7.5ZM13.5 12C13.5 12.8284 12.8284 13.5 12 13.5C11.1716 13.5 10.5 12.8284 10.5 12C10.5 11.1716 11.1716 10.5 12 10.5C12.8284 10.5 13.5 11.1716 13.5 12ZM15 12C15 13.6569 13.6569 15 12 15C10.3431 15 9 13.6569 9 12C9 10.3431 10.3431 9 12 9C13.6569 9 15 10.3431 15 12Z" fill="black"/>
</svg>
