<svg width="24" height="24" viewBox="0 0 24 24" fill="none" xmlns="http://www.w3.org/2000/svg">
<path fill-rule="evenodd" clip-rule="evenodd" d="M6 5.25C6 4.42157 6.67157 3.75 7.5 3.75H13.5C13.9142 3.75 14.25 4.08579 14.25 4.5V5.25H12C10.7574 5.25 9.75 6.25736 9.75 7.5V8.25H8V9.75H22V8.25H20.25V7.5C20.25 6.25736 19.2426 5.25 18 5.25H15.75V4.5C15.75 3.25736 14.7426 2.25 13.5 2.25H7.5C5.84315 2.25 4.5 3.59315 4.5 5.25V21.75H6V5.25ZM18.75 8.25H11.25V7.5C11.25 7.08579 11.5858 6.75 12 6.75H18C18.4142 6.75 18.75 7.08579 18.75 7.5V8.25ZM10.5 11.25V12.75H12V11.25H10.5ZM18 12.75V11.25H19.5V12.75H18ZM14.25 11.25V12.75H15.75V11.25H14.25ZM10.5 16.5V15H12V16.5H10.5ZM18 15V16.5H19.5V15H18ZM14.25 16.5V15H15.75V16.5H14.25ZM10.5 18.75V20.25H12V18.75H10.5ZM18 20.25V18.75H19.5V20.25H18ZM14.25 18.75V20.25H15.75V18.75H14.25Z" fill="black"/>
</svg>
