<svg width="24" height="24" viewBox="0 0 24 24" fill="none" xmlns="http://www.w3.org/2000/svg">
<path fill-rule="evenodd" clip-rule="evenodd" d="M7.25 3C5.73122 3 4.5 4.23122 4.5 5.75V10.5H2.25H1.5V11.25V14.25V15H2.25H3V20.25V21H3.75H6.75H7.5V20.25H16.5V21H17.25H20.25H21V20.25V15H21.75H22.5V14.25V11.25V10.5H21.75H19.5V5.75C19.5 4.23122 18.2688 3 16.75 3H7.25ZM18 10.9013V5.75C18 5.05964 17.4404 4.5 16.75 4.5H7.25C6.55964 4.5 6 5.05964 6 5.75V10.9122C6.67182 11.3127 7.17377 11.9731 7.38712 12.75H16.5945C16.7974 11.9619 17.3124 11.2991 18 10.9013ZM16.5 14.25H7.5V15.75H16.5V14.25ZM16.5 17.25H7.5V18.75H16.5V17.25ZM3 13.5H3.75H4.5V14.25V19.5H6V13.59C6 12.6839 5.30097 12 4.5 12H3V13.5ZM20.25 13.5H21V12H19.5C18.6716 12 18 12.6716 18 13.5V19.5H19.5V14.25V13.5H20.25Z" fill="black"/>
</svg>
