<svg width="24" height="24" viewBox="0 0 24 24" fill="none" xmlns="http://www.w3.org/2000/svg">
<path fill-rule="evenodd" clip-rule="evenodd" d="M12.75 20.25H22V21.75H23.5V14.1283L22 9.62829V4.5C22 3.25736 20.9926 2.25 19.75 2.25H4.25C3.00736 2.25 2 3.25736 2 4.5V9.62829L0.5 14.1283V21.75H2V20.25H11.25V21.75H12.75V20.25ZM4.25 3.75C3.83579 3.75 3.5 4.08579 3.5 4.5V9.75H4.5V6.75C4.5 6.19772 4.94772 5.75 5.5 5.75H9.5C10.0523 5.75 10.5 6.19772 10.5 6.75V9.75H11.25V3.75H4.25ZM3.04057 11.25L2.04057 14.25H11.25V11.25H3.04057ZM9 9.75V7.25H6V9.75H9ZM19.75 3.75H12.75V9.75H13.5V6.75C13.5 6.19772 13.9477 5.75 14.5 5.75H18.5C19.0523 5.75 19.5 6.19772 19.5 6.75V9.75H20.5V4.5C20.5 4.08579 20.1642 3.75 19.75 3.75ZM18 9.75H15V7.25H18V9.75ZM12.75 11.25H20.9594L21.9594 14.25H12.75V11.25ZM11.25 15.75H2V18.75H11.25V15.75ZM12.75 18.75V15.75H22V18.75H12.75Z" fill="black"/>
</svg>
