<svg width="24" height="24" viewBox="0 0 24 24" fill="none" xmlns="http://www.w3.org/2000/svg">
<path d="M12.5 3C12.9925 3 13.4801 3.097 13.9351 3.28545C14.39 3.47391 14.8034 3.75013 15.1517 4.09835C15.4999 4.44657 15.7761 4.85997 15.9645 5.31494C16.153 5.76991 16.25 6.25754 16.25 6.75C16.25 7.24246 16.153 7.73009 15.9645 8.18506C15.7761 8.64003 15.4999 9.05343 15.1517 9.40165C14.8034 9.74987 14.39 10.0261 13.9351 10.2145C13.4801 10.403 12.9925 10.5 12.5 10.5C11.5054 10.5 10.5516 10.1049 9.84835 9.40165C9.14509 8.69839 8.75 7.74456 8.75 6.75C8.75 5.75544 9.14509 4.80161 9.84835 4.09835C10.5516 3.39509 11.5054 3 12.5 3ZM12.5 1.5C11.1076 1.5 9.77226 2.05312 8.78769 3.03769C7.80312 4.02226 7.25 5.35761 7.25 6.75C7.25 8.14239 7.80312 9.47774 8.78769 10.4623C9.77226 11.4469 11.1076 12 12.5 12C13.8924 12 15.2277 11.4469 16.2123 10.4623C17.1969 9.47774 17.75 8.14239 17.75 6.75C17.75 5.35761 17.1969 4.02226 16.2123 3.03769C15.2277 2.05312 13.8924 1.5 12.5 1.5ZM20 22.5H18.5V18.75C18.5 18.2575 18.403 17.7699 18.2145 17.3149C18.0261 16.86 17.7499 16.4466 17.4017 16.0983C17.0534 15.7501 16.64 15.4739 16.1851 15.2855C15.7301 15.097 15.2425 15 14.75 15H10.25C9.25544 15 8.30161 15.3951 7.59835 16.0983C6.89509 16.8016 6.5 17.7554 6.5 18.75V22.5H5V18.75C5 17.3576 5.55312 16.0223 6.53769 15.0377C7.52226 14.0531 8.85761 13.5 10.25 13.5H14.75C16.1424 13.5 17.4777 14.0531 18.4623 15.0377C19.4469 16.0223 20 17.3576 20 18.75V22.5Z" fill="#161616"/>
<path d="M19 21V22.5H6V21H19Z" fill="black"/>
</svg>
