<svg width="24" height="24" viewBox="0 0 24 24" fill="none" xmlns="http://www.w3.org/2000/svg">
<path d="M12 20.2499C12.8284 20.2499 13.5 19.5784 13.5 18.7499C13.5 17.9215 12.8284 17.2499 12 17.2499C11.1716 17.2499 10.5 17.9215 10.5 18.7499C10.5 19.5784 11.1716 20.2499 12 20.2499Z" fill="black"/>
<path d="M7.85251 14.425L8.91271 15.4848C9.74382 14.6933 10.8472 14.2512 11.9949 14.2499C13.1426 14.2486 14.247 14.6882 15.0799 15.4778L16.14 14.4176C15.0261 13.3463 13.5402 12.7485 11.9947 12.7499C10.4492 12.7513 8.96449 13.3517 7.85251 14.425Z" fill="black"/>
<path d="M4.67175 11.2445L5.73195 12.3046C7.40591 10.6681 9.65349 9.75124 11.9945 9.74984C14.3354 9.74844 16.5841 10.6626 18.26 12.2971L19.32 11.2371C17.3631 9.32106 14.733 8.24862 11.9942 8.25003C9.25549 8.25143 6.62669 9.32641 4.67175 11.2445Z" fill="black"/>
<path d="M22.5 8.05584C19.7017 5.2967 15.9298 3.74988 12 3.74988C8.07019 3.74988 4.29831 5.2967 1.5 8.05584V8.07271L2.55323 9.12594C5.06893 6.64376 8.46049 5.25146 11.9946 5.25005C15.5287 5.24865 18.9214 6.63826 21.439 9.11844L22.5 8.05734V8.05584Z" fill="black"/>
</svg>
